<svg width="31" height="30" viewBox="0 0 31 30" fill="none" xmlns="http://www.w3.org/2000/svg">
<path fill-rule="evenodd" clip-rule="evenodd" d="M30.162 15C30.162 23.2845 23.4465 30 15.162 30C6.87749 30 0.161987 23.2845 0.161987 15C0.161987 6.7155 6.87749 0 15.162 0C23.4465 0 30.162 6.7155 30.162 15ZM9.32849 20.8335C9.18788 20.6929 9.1089 20.5021 9.1089 20.3032C9.1089 20.1044 9.18788 19.9136 9.32849 19.773L14.1015 15L9.32849 10.227C9.19187 10.0855 9.11627 9.8961 9.11798 9.69945C9.11969 9.5028 9.19857 9.31469 9.33762 9.17564C9.47668 9.03658 9.66479 8.9577 9.86144 8.95599C10.0581 8.95429 10.2475 9.02988 10.389 9.1665L15.162 13.9395L19.935 9.1665C20.0764 9.02988 20.2659 8.95429 20.4625 8.95599C20.6592 8.9577 20.8473 9.03658 20.9864 9.17564C21.1254 9.31469 21.2043 9.5028 21.206 9.69945C21.2077 9.8961 21.1321 10.0855 20.9955 10.227L16.2225 15L20.9955 19.773C21.1321 19.9145 21.2077 20.1039 21.206 20.3006C21.2043 20.4972 21.1254 20.6853 20.9864 20.8244C20.8473 20.9634 20.6592 21.0423 20.4625 21.044C20.2659 21.0457 20.0764 20.9701 19.935 20.8335L15.162 16.0605L10.389 20.8335C10.2483 20.9741 10.0576 21.0531 9.85874 21.0531C9.65986 21.0531 9.46913 20.9741 9.32849 20.8335Z" fill="#F24E1E"/>
</svg>
