<svg width="31" height="30" viewBox="0 0 31 30" fill="none" xmlns="http://www.w3.org/2000/svg">
<path fill-rule="evenodd" clip-rule="evenodd" d="M15.162 30C23.4465 30 30.162 23.2845 30.162 15C30.162 6.7155 23.4465 0 15.162 0C6.87749 0 0.161987 6.7155 0.161987 15C0.161987 23.2845 6.87749 30 15.162 30ZM23.2185 10.2525C23.2887 10.1802 23.3435 10.0945 23.3799 10.0006C23.4162 9.90658 23.4332 9.80626 23.4299 9.70556C23.4266 9.60487 23.4031 9.50587 23.3607 9.41448C23.3183 9.32308 23.2579 9.24117 23.1832 9.17363C23.1084 9.10608 23.0208 9.05429 22.9256 9.02135C22.8304 8.9884 22.7295 8.97497 22.629 8.98187C22.5285 8.98876 22.4304 9.01584 22.3406 9.06147C22.2508 9.10711 22.1711 9.17038 22.1062 9.2475L13.122 19.1752L8.17949 14.457C8.03567 14.3196 7.84315 14.2449 7.64427 14.2494C7.44538 14.2539 7.25644 14.3372 7.11899 14.481C6.98154 14.6248 6.90685 14.8173 6.91135 15.0162C6.91585 15.2151 6.99917 15.4041 7.14299 15.5415L12.6435 20.7915L13.2007 21.324L13.7175 20.7525L23.2185 10.2525Z" fill="#4ECB71"/>
</svg>
