<svg width="15" height="16" viewBox="0 0 15 16" fill="none" xmlns="http://www.w3.org/2000/svg">
<g id="Icon">
<path id="Vector" d="M13.3773 12.8465L10.6207 10.0899C11.2844 9.20644 11.6426 8.13105 11.6414 7.02607C11.6414 4.20361 9.34514 1.90732 6.52268 1.90732C3.70022 1.90732 1.40393 4.20361 1.40393 7.02607C1.40393 9.84853 3.70022 12.1448 6.52268 12.1448C7.62766 12.146 8.70305 11.7878 9.58654 11.1241L12.3431 13.8807C12.4826 14.0054 12.6646 14.072 12.8517 14.0667C13.0388 14.0615 13.2168 13.9848 13.3491 13.8525C13.4815 13.7202 13.5581 13.5422 13.5633 13.3551C13.5686 13.168 13.502 12.986 13.3773 12.8465ZM2.86643 7.02607C2.86643 6.30293 3.08087 5.59603 3.48262 4.99476C3.88437 4.3935 4.4554 3.92487 5.12349 3.64813C5.79158 3.3714 6.52673 3.29899 7.23598 3.44007C7.94522 3.58115 8.5967 3.92937 9.10804 4.44071C9.61937 4.95204 9.9676 5.60352 10.1087 6.31277C10.2498 7.02201 10.1773 7.75716 9.90061 8.42525C9.62388 9.09334 9.15525 9.66437 8.55398 10.0661C7.95271 10.4679 7.24582 10.6823 6.52268 10.6823C5.55334 10.6812 4.62403 10.2956 3.93861 9.61014C3.25318 8.92471 2.86759 7.99541 2.86643 7.02607Z" fill="#2D3748"/>
</g>
</svg>
